<svg version="1.0" xmlns="http://www.w3.org/2000/svg"
     width="100%" viewBox="0 0 270 410">

  <g transform="translate(1,425) scale(0.100000,-0.100000)" stroke="none">
    <path fill="#1a202e" id="head" d="M1246 4229 c-114 -15 -199 -79 -235 -174 -97 -258 -6 -591 190 -700
46 -26 65 -30 129 -30 64 0 83 4 129 30 164 91 259 343 221 583 -31 186 -111
270 -280 291 -46 6 -85 10 -85 10 0 -1 -31 -6 -69 -10z"/>
    <path fill="#1a202e" id="left-arm" d="M45 4125 c-71 -70 13 -326 196 -596 84 -123 233 -303 317 -381 46
-43 56 -48 97 -48 63 0 105 40 105 97 0 93 -116 352 -256 573 -116 183 -259
343 -332 371 -46 17 -101 11 -127 -16z"/>
    <path fill="#1a202e" id="right-arm" d="M2472 4134 c-100 -50 -307 -318 -430 -559 -79 -153 -142 -317 -142
-366 0 -67 45 -109 117 -109 35 0 46 8 135 100 219 225 384 477 458 699 56
166 35 251 -62 251 -24 0 -58 -8 -76 -16z"/>
    <path fill="#1a202e" id="torso" d="M1175 3269 c-77 -10 -205 -49 -275 -84 -53 -27 -80 -54 -111 -115
-21 -41 -24 -61 -27 -214 -2 -93 1 -218 7 -277 21 -194 114 -523 196 -690 29
-61 49 -76 145 -111 58 -21 82 -23 225 -23 149 1 165 3 229 28 38 14 79 36 92
48 73 68 209 503 235 748 6 59 9 184 7 277 -4 145 -7 175 -26 214 -37 79 -89
115 -237 163 -133 44 -297 56 -460 36z"/>
    <path fill="#1a202e" id="left-leg" d="M1082 1680 c-79 -36 -115 -91 -156 -240 -43 -159 -57 -285 -63 -575
-4 -215 -2 -294 11 -389 37 -274 125 -438 225 -421 75 14 87 35 135 237 71
296 69 275 69 805 -1 551 1 538 -83 581 -54 27 -82 27 -138 2z"/>
    <path fill="#1a202e" id="right-leg" d="M1440 1678 c-85 -43 -83 -29 -82 -587 l0 -486 26 -130 c29 -139 70
-308 85 -348 17 -45 51 -67 102 -67 59 0 86 21 126 97 82 153 107 335 100 708
-6 290 -20 416 -63 575 -41 149 -77 204 -156 240 -56 25 -84 25 -138 -2z"/>
  </g>
</svg>
