<svg xmlns="http://www.w3.org/2000/svg" viewBox="0 0 69.339455 110.73354">
  <g>
    <path id="logo"
      d="M32.44083108.26458333c-3.01624962.39687495-5.26520767 2.09020807-6.21770755 4.60374942-2.56645801 6.82624914-.15874998 15.63687303 5.0270827 18.520831 1.21708318.68791658 1.71979145.7937499 3.41312457.7937499s2.19604139-.10583332 3.41312457-.7937499c4.33916612-2.40770803 6.85270747-9.07520719 5.84729093-15.42520639-.82020823-4.92124938-2.93687463-7.1437491-7.4083324-7.69937403C35.29833072.10583335 34.26645585 3e-8 34.26645585 3e-8c0 .02645833-.82020823.15874998-1.82562477.2645833zM.66437675 3.01624965c-1.87854143 1.8520831.34395829 8.62541558 5.18583268 15.76916468 2.22249972 3.25437459 6.16479089 8.01687399 8.38729061 10.08062373 1.21708318 1.13770819 1.48166648 1.26999984 2.56645801 1.26999984 1.66687479 0 2.77812465-1.0583332 2.77812465-2.56645801 0-2.46062469-3.06916628-9.31333216-6.77333248-15.16062309-3.06916628-4.84187439-6.85270747-9.07520719-8.78416556-9.81604043-1.21708318-.44979161-2.67229133-.29104163-3.36020791.42333328zM64.87874366 2.77812468c-2.645833 1.3229165-8.12270731 8.41374894-11.3770819 14.79020647-2.09020807 4.04812449-3.75708286 8.38729061-3.75708286 9.68374878 0 1.77270811 1.19062485 2.88395797 3.09562461 2.88395797.92604155 0 1.21708318-.21166664 3.57187455-2.645833 5.79437427-5.95312425 10.15999872-12.62062341 12.11791514-18.49437267 1.48166648-4.39208278.92604155-6.64104083-1.64041646-6.64104083-.63499992 0-1.53458314.21166664-2.01083308.42333328zM30.56228965 25.66458013c-2.03729141.2645833-5.42395765 1.29645817-7.27604075 2.22249972-1.40229149.71437491-2.1166664 1.42874982-2.93687463 3.04270795-.55562493 1.08479153-.63499992 1.61395813-.71437491 5.66208262-.05291666 2.46062469.02645833 5.76791594.18520831 7.32895741.55562493 5.13291602 3.01624962 13.83770659 5.18583268 18.2562477.76729157 1.61395813 1.29645817 2.01083308 3.83645785 2.93687463 1.53458314.55562493 2.16958306.60854159 5.95312425.60854159 3.94229117-.02645833 4.36562445-.07937499 6.05895757-.74083324 1.00541654-.37041662 2.09020807-.95249988 2.43416636-1.26999984 1.93145809-1.79916644 5.52979097-13.30853999 6.21770755-19.79083084.15874998-1.56104147.23812497-4.86833272.18520831-7.32895741-.10583332-3.83645785-.18520831-4.63020775-.68791658-5.66208262-.97895821-2.09020807-2.35479137-3.04270795-6.27062421-4.31270779-3.51895789-1.16416652-7.85812401-1.48166648-12.1708318-.95249988zM28.10166496 67.7068665c-2.09020807.95249988-3.04270795 2.40770803-4.12749948 6.3499992-1.13770819 4.20687447-1.50812481 7.54062405-1.66687479 15.21353975-.10583332 5.68854095-.05291666 7.77874902.29104163 10.29229037.97895821 7.24958242 3.30729125 11.58874854 5.95312425 11.13895693 1.98437475-.37041662 2.30187471-.92604155 3.57187455-6.27062421 1.87854143-7.83166568 1.82562477-7.27604075 1.82562477-21.29895565-.02645833-14.57853983.02645833-14.23458154-2.19604139-15.37228973-1.42874982-.71437491-2.16958306-.71437491-3.65124954-.05291666zM37.5737471 67.75978316c-2.24895805 1.13770819-2.19604139.76729157-2.16958306 15.53103971v12.85874838l.68791658 3.4395829c.76729157 3.67770787 1.8520831 8.14916564 2.24895805 9.20749884.44979161 1.19062485 1.34937483 1.77270811 2.69874966 1.77270811 1.56104147 0 2.27541638-.55562493 3.33374958-2.56645801 2.16958306-4.04812449 2.83104131-8.86354055 2.645833-18.73249764-.15874998-7.6729157-.5291666-11.00666528-1.66687479-15.21353975-1.08479153-3.94229117-2.03729141-5.39749932-4.12749948-6.3499992-1.48166648-.66145825-2.22249972-.66145825-3.65124954.05291666z"/>
  </g>
</svg>
